<svg width="652" height="118" viewBox="0 0 652 118" fill="none" xmlns="http://www.w3.org/2000/svg">
<path d="M620 72.0998H609.8L604.7 80.8998L609.8 89.6998H620L625.1 80.8998L620 72.0998ZM598.5 41.1998H585.8L576.9 56.4998C575.8 58.0998 575.4 59.0998 572.9 59.1998H566.8V25.2998H555.4V89.6998H566.8V69.5998H571.8C574.2 69.6998 574.7 70.5998 575.6 72.0998L585.7 89.6998H598.5L584.5 65.3998L598.5 41.1998ZM547.1 45.7998C545.3 44.3998 543.4 43.1998 541.3 42.2998C538.1 40.8998 534.7 40.1998 531.2 40.1998C526.7 40.1998 522.2 41.3998 518.3 43.6998C514.4 45.8998 511.1 49.0998 508.8 52.9998C506.5 56.7998 505.2 61.0998 505.2 65.4998C505.2 69.8998 506.4 74.2998 508.8 78.0998C511.1 81.9998 514.4 85.1998 518.3 87.3998C525.4 91.4998 534 91.9998 541.5 88.6998C543.5 87.7998 545.5 86.5998 547.2 85.1998L542.1 76.2998C540.7 77.7998 539.1 78.9998 537.3 79.7998C535.4 80.6998 533.3 81.1998 531.3 81.1998C528.7 81.1998 526.2 80.4998 524 79.0998C521.8 77.6998 519.9 75.6998 518.7 73.3998C517.4 70.9998 516.7 68.2998 516.7 65.5998C516.7 62.8998 517.4 60.1998 518.7 57.8998C519.9 55.5998 521.8 53.5998 524 52.1998C526.2 50.7998 528.7 50.0998 531.3 50.0998C535.4 50.0998 539.3 51.8998 542 54.8998L545.9 48.0998L547.1 45.7998ZM476.8 40.0998C470.7 40.0998 464.3 41.7998 457.5 45.1998L461.9 52.8998C465.9 50.9998 470.1 49.4998 474.5 49.4998C482.6 49.4998 485.6 53.6998 486.1 59.1998H472.8C461.9 59.1998 453 65.7998 453 75.2998C453 84.6998 460.8 90.7998 471.1 90.7998C476.7 90.7998 482.5 88.6998 486.1 84.1998V89.6998H497.6V60.5998C497.6 48.2998 489.6 40.0998 476.8 40.0998ZM486.1 73.0998C486.1 77.6998 481.5 82.4998 473.7 82.4998C468.3 82.4998 464.2 79.5998 464.2 74.9998C464.2 70.3998 468.8 67.3998 474.5 67.3998H486.1V73.0998ZM433.2 25.2998H444.6V89.6998H433.2V25.2998ZM412.5 55.6998C418.5 52.4998 421.6 47.6998 421.6 41.4998C421.6 38.5998 420.8 35.6998 419.2 33.1998C417.5 30.6998 415.2 28.6998 412.5 27.3998C409.6 25.9998 406.4 25.2998 402.7 25.3998H371.4V89.6998H403.9C407.8 89.5998 411.4 88.8998 414.5 87.3998C417.5 85.9998 420 83.8998 421.8 81.1998C423.6 78.4998 424.5 75.3998 424.4 72.1998C424.4 68.7998 423.3 65.4998 421.3 62.6998C419.1 59.7998 416.2 57.4998 412.5 55.6998ZM382.6 35.4998H399.7C402.6 35.4998 404.9 36.1998 406.8 37.6998C408.6 38.9998 409.6 41.1998 409.6 43.3998C409.6 45.5998 408.7 47.4998 406.8 48.9998C404.9 50.4998 402.6 51.1998 399.7 51.1998H382.6V35.4998ZM409.2 76.9998C407.2 78.6998 404.6 79.5998 401.4 79.5998H382.6V61.2998H401.4C404.6 61.2998 407.2 62.1998 409.2 63.8998C412.8 66.9998 413.3 72.4998 410.2 76.0998C410 76.2998 409.6 76.6998 409.2 76.9998ZM327.6 42.5998C324.8 40.9998 321.5 40.1998 318.3 40.1998C315.3 40.1998 312.3 40.8998 309.6 42.2998C307.1 43.5998 304.9 45.4998 303.3 47.7998V41.1998H291.9V89.6998H303.3V59.0998C303.7 56.4998 305.1 54.0998 307.2 52.5998C309.4 50.7998 312.2 49.8998 315 49.9998C318 49.9998 320.4 50.9998 322.3 53.0998C324.2 55.1998 325.2 57.8998 325.1 61.1998V89.7998H336.1V58.9998C336.2 55.5998 335.4 52.2998 333.8 49.2998C332.5 46.3998 330.3 44.0998 327.6 42.5998ZM272.2 43.6998C264.2 39.0998 254.4 39.0998 246.5 43.6998C242.6 45.8998 239.3 49.0998 237 52.9998C234.7 56.7998 233.4 61.0998 233.4 65.4998C233.4 69.8998 234.6 74.2998 237 78.0998C239.3 81.9998 242.6 85.1998 246.5 87.3998C254.5 91.9998 264.3 91.9998 272.2 87.3998C276.1 85.0998 279.4 81.8998 281.7 78.0998C284 74.2998 285.3 69.9998 285.3 65.4998C285.3 61.0998 284.1 56.6998 281.7 52.9998C279.4 49.0998 276.1 45.8998 272.2 43.6998ZM272 73.2998C270.7 75.5998 268.9 77.5998 266.6 78.9998C264.4 80.3998 261.9 81.0998 259.3 81.0998C256.7 81.0998 254.2 80.3998 252 78.9998C249.7 77.5998 247.9 75.5998 246.6 73.2998C245.3 70.8998 244.6 68.1998 244.6 65.4998C244.6 62.7998 245.3 60.0998 246.6 57.7998C247.9 55.4998 249.8 53.4998 252 52.0998C254.2 50.6998 256.7 49.9998 259.3 49.9998C261.9 49.9998 264.4 50.6998 266.6 52.0998C271.2 54.9998 274 60.0998 274 65.4998C274.1 68.1998 273.4 70.8998 272 73.2998ZM216.6 43.3998C213.2 41.1998 209.2 40.0998 205.2 40.1998C198.5 40.0998 192.1 43.3998 188.4 48.9998V25.3998H177V89.7998H188.4V81.9998C192.1 87.5998 198.5 90.8998 205.2 90.7998C209.2 90.8998 213.2 89.6998 216.6 87.5998C220 85.3998 222.8 82.2998 224.5 78.5998C226.5 74.4998 227.5 69.9998 227.5 65.4998C227.5 60.9998 226.5 56.4998 224.5 52.4998C222.8 48.7998 220 45.5998 216.6 43.3998ZM212.1 76.6998C209.5 79.5998 206.1 81.0998 202.1 81.0998C198.1 81.0998 194.8 79.5998 192.3 76.6998C189.7 73.7998 188.4 69.9998 188.4 65.4998C188.4 60.9998 189.8 57.1998 192.3 54.2998C194.8 51.3998 198.1 49.8998 202.1 49.8998C206.2 49.8998 209.5 51.3998 212.1 54.2998C214.7 57.1998 216 60.8998 216 65.4998C216.1 69.9998 214.7 73.7998 212.1 76.6998ZM151.1 49.0998V41.2998H139.7V89.7998H151.1V66.3998C151.1 61.7998 152.7 58.0998 155.9 55.2998C159.1 52.4998 163.3 51.3998 168.4 51.3998V41.2998C163.2 41.1998 154.6 44.9998 151.1 49.0998ZM110.4 40.0998C104.3 40.0998 97.9001 41.7998 91.1001 45.1998L95.5001 52.8998C99.5001 50.9998 103.7 49.4998 108.1 49.4998C116.2 49.4998 119.2 53.6998 119.7 59.1998H106.4C95.5001 59.1998 86.6001 65.7998 86.6001 75.2998C86.6001 84.6998 94.4001 90.7998 104.7 90.7998C110.3 90.7998 116.1 88.6998 119.7 84.1998V89.6998H131.2V60.5998C131.2 48.2998 123.2 40.0998 110.4 40.0998ZM119.7 73.0998C119.7 77.6998 115.1 82.4998 107.3 82.4998C101.9 82.4998 97.8001 79.5998 97.8001 74.9998C97.8001 70.3998 102.4 67.3998 108.1 67.3998H119.7V73.0998ZM74.9001 73.0998C66.3001 81.8998 52.2001 82.1998 43.4001 73.5998C34.6001 64.9998 34.3001 50.8998 42.9001 42.0998C51.5001 33.2998 65.6001 32.9998 74.4001 41.5998C74.6001 41.7998 74.7001 41.8998 74.9001 42.0998L80.5001 32.3998C74.4001 27.1998 66.6001 24.2998 58.6001 24.2998C40.1001 24.2998 25.1001 39.1998 25.1001 57.5998C25.1001 75.9998 40.1001 90.8998 58.6001 90.8998C66.6001 90.8998 74.4001 88.0998 80.5001 82.8998L74.9001 73.0998Z" fill="#0A0A0A"/>
</svg>
